<?xml version="1.0" encoding="utf-8"?>
<svg xmlns="http://www.w3.org/2000/svg" width="17" height="22" viewBox="0 0 17 22">
    <g fill="#FFFFFE" fill-rule="evenodd">
        <path d="M12.049 18H.083a2.998 2.998 0 0 0 2.995 2.996h8.97A2.998 2.998 0 0 0 15.046 18V5.708a.111.111 0 0 0-.114-.114h-2.768a.111.111 0 0 0-.114.114V18zm0-17.958a2.998 2.998 0 0 1 2.996 2.996H3.078v12.276a.111.111 0 0 1-.114.114H.197a.111.111 0 0 1-.114-.114V3.038A2.998 2.998 0 0 1 3.078.042h8.971zM15.739 21.136c0 .026 0 .026.013.052 0 .026 0 .026.013.053 0-.027 0-.027.013-.053 0 0 0-.026.013-.052l.132-.474c0-.026.013-.026.013-.026h.092v.947h-.092v-.605l.013-.132-.144.526c-.014.027-.014.053-.04.053h-.013c-.013 0-.026-.026-.04-.053l-.144-.526v.684h-.092v-.947h.092l.013.026.158.527zm-.316-.527v.158h-.145v.763h-.105v-.763h-.145v-.158h.395z"/>
    </g>
</svg>
