<svg width="351" height="57" viewBox="0 0 351 57" fill="none" xmlns="http://www.w3.org/2000/svg">
  <path d="M0.5 56.92H56.5V0.92H0.5V56.92ZM104.821 11.448C105.231 11.448 105.437 11.672 105.437 12.12V52.328C105.437 52.552 105.362 52.72 105.213 52.832C105.101 52.944 104.933 53 104.709 53H101.965C101.741 53 101.535 52.9813 101.349 52.944C101.162 52.9067 100.975 52.776 100.789 52.552L79.1726 21.136C78.9859 20.8747 78.8366 20.7627 78.7246 20.8C78.6126 20.8373 78.5566 20.968 78.5566 21.192V52.272C78.5566 52.7573 78.2952 53 77.7726 53H74.6366C74.1512 53 73.9086 52.7573 73.9086 52.272V12.232C73.9086 11.7093 74.1512 11.448 74.6366 11.448H77.8286C78.1272 11.448 78.3512 11.4853 78.5006 11.56C78.6499 11.5973 78.8179 11.7467 79.0046 12.008L100.005 42.752C100.229 43.0133 100.415 43.1067 100.565 43.032C100.751 42.9573 100.845 42.808 100.845 42.584V12.12C100.845 11.672 101.069 11.448 101.517 11.448H104.821ZM118.307 40.008C118.307 41.8373 118.737 43.5173 119.595 45.048C120.491 46.5413 121.667 47.736 123.123 48.632C124.617 49.528 126.278 49.976 128.107 49.976C129.974 49.976 131.635 49.6027 133.091 48.856C134.547 48.072 135.798 46.896 136.843 45.328C136.993 45.1787 137.105 45.104 137.179 45.104C137.291 45.0667 137.441 45.0853 137.627 45.16L139.979 46.336C140.315 46.5227 140.353 46.784 140.091 47.12C139.083 48.6133 137.963 49.8453 136.731 50.816C135.537 51.7493 134.193 52.44 132.699 52.888C131.206 53.336 129.526 53.56 127.659 53.56C124.897 53.56 122.451 52.9253 120.323 51.656C118.195 50.3867 116.515 48.6133 115.283 46.336C114.051 44.0587 113.435 41.4267 113.435 38.44C113.435 35.192 114.051 32.4107 115.283 30.096C116.553 27.744 118.251 25.9333 120.379 24.664C122.545 23.3947 124.953 22.76 127.603 22.76C130.329 22.76 132.699 23.3573 134.715 24.552C136.731 25.7467 138.299 27.4827 139.419 29.76C140.539 32.0373 141.099 34.7813 141.099 37.992C141.099 38.2533 141.062 38.5147 140.987 38.776C140.95 39.0373 140.707 39.168 140.259 39.168H118.811C118.662 39.168 118.531 39.2613 118.419 39.448C118.345 39.5973 118.307 39.784 118.307 40.008ZM135.443 36.088C135.854 36.088 136.115 36.0507 136.227 35.976C136.339 35.864 136.395 35.64 136.395 35.304C136.395 33.6987 136.041 32.2053 135.331 30.824C134.659 29.4053 133.67 28.2667 132.363 27.408C131.094 26.5493 129.545 26.12 127.715 26.12C125.699 26.12 124.001 26.6053 122.619 27.576C121.238 28.5093 120.193 29.7413 119.483 31.272C118.774 32.8027 118.419 34.408 118.419 36.088H135.443ZM170.537 51.824C170.835 52.272 170.966 52.5893 170.929 52.776C170.891 52.9253 170.686 53 170.313 53H166.393C165.833 53 165.441 52.832 165.217 52.496L157.321 41.632C157.134 41.3707 156.966 41.24 156.817 41.24C156.705 41.2027 156.555 41.3333 156.369 41.632L148.137 52.496C147.913 52.832 147.521 53 146.961 53H144.329C143.955 53 143.694 52.9067 143.545 52.72C143.395 52.496 143.526 52.1413 143.937 51.656L154.129 38.664C154.315 38.4027 154.39 38.1973 154.353 38.048C154.353 37.8613 154.278 37.656 154.129 37.432L144.329 24.216C144.217 24.0293 144.198 23.8427 144.273 23.656C144.385 23.432 144.571 23.32 144.833 23.32H148.585C148.883 23.32 149.089 23.3573 149.201 23.432C149.35 23.5067 149.499 23.6373 149.649 23.824L157.209 34.072C157.507 34.4827 157.787 34.4827 158.049 34.072L165.385 23.824C165.534 23.6373 165.683 23.5067 165.833 23.432C165.982 23.3573 166.206 23.32 166.505 23.32H169.417C169.753 23.32 169.921 23.4133 169.921 23.6C169.958 23.7493 169.902 23.9173 169.753 24.104L160.289 36.76C160.102 36.984 160.009 37.1893 160.009 37.376C160.046 37.5627 160.139 37.768 160.289 37.992L170.537 51.824ZM183.441 26.848C183.142 26.848 182.993 26.9973 182.993 27.296V45.048C182.993 46.8027 183.292 47.9787 183.889 48.576C184.486 49.1733 185.382 49.472 186.577 49.472H190.441C190.628 49.472 190.777 49.528 190.889 49.64C191.001 49.7147 191.057 49.864 191.057 50.088L191.001 51.992C191.001 52.3653 190.777 52.608 190.329 52.72C189.956 52.7947 189.414 52.8507 188.705 52.888C188.033 52.9253 187.361 52.9627 186.689 53C186.054 53 185.513 53 185.065 53C182.713 53 180.996 52.4587 179.913 51.376C178.83 50.256 178.289 48.5013 178.289 46.112V27.408C178.289 27.0347 178.102 26.848 177.729 26.848H173.249C172.838 26.848 172.633 26.6427 172.633 26.232V23.88C172.633 23.5067 172.82 23.32 173.193 23.32H177.953C178.214 23.32 178.345 23.1707 178.345 22.872L178.961 13.968C178.998 13.4827 179.204 13.24 179.577 13.24H182.377C182.825 13.24 183.049 13.5013 183.049 14.024V22.872C183.049 23.1707 183.198 23.32 183.497 23.32H190.553C190.964 23.32 191.169 23.488 191.169 23.824V26.232C191.169 26.6427 190.964 26.848 190.553 26.848H183.441ZM212.37 40.008C212.37 41.8373 212.799 43.5173 213.658 45.048C214.554 46.5413 215.73 47.736 217.186 48.632C218.679 49.528 220.341 49.976 222.17 49.976C224.037 49.976 225.698 49.6027 227.154 48.856C228.61 48.072 229.861 46.896 230.906 45.328C231.055 45.1787 231.167 45.104 231.242 45.104C231.354 45.0667 231.503 45.0853 231.69 45.16L234.042 46.336C234.378 46.5227 234.415 46.784 234.154 47.12C233.146 48.6133 232.026 49.8453 230.794 50.816C229.599 51.7493 228.255 52.44 226.762 52.888C225.269 53.336 223.589 53.56 221.722 53.56C218.959 53.56 216.514 52.9253 214.386 51.656C212.258 50.3867 210.578 48.6133 209.346 46.336C208.114 44.0587 207.498 41.4267 207.498 38.44C207.498 35.192 208.114 32.4107 209.346 30.096C210.615 27.744 212.314 25.9333 214.442 24.664C216.607 23.3947 219.015 22.76 221.666 22.76C224.391 22.76 226.762 23.3573 228.778 24.552C230.794 25.7467 232.362 27.4827 233.482 29.76C234.602 32.0373 235.162 34.7813 235.162 37.992C235.162 38.2533 235.125 38.5147 235.05 38.776C235.013 39.0373 234.77 39.168 234.322 39.168H212.874C212.725 39.168 212.594 39.2613 212.482 39.448C212.407 39.5973 212.37 39.784 212.37 40.008ZM229.506 36.088C229.917 36.088 230.178 36.0507 230.29 35.976C230.402 35.864 230.458 35.64 230.458 35.304C230.458 33.6987 230.103 32.2053 229.394 30.824C228.722 29.4053 227.733 28.2667 226.426 27.408C225.157 26.5493 223.607 26.12 221.778 26.12C219.762 26.12 218.063 26.6053 216.682 27.576C215.301 28.5093 214.255 29.7413 213.546 31.272C212.837 32.8027 212.482 34.408 212.482 36.088H229.506ZM265.034 23.32C265.295 23.32 265.482 23.4133 265.594 23.6C265.706 23.7493 265.706 23.936 265.594 24.16L254.226 52.16C254.039 52.72 253.61 53 252.938 53H250.922C250.213 53 249.746 52.7387 249.522 52.216L238.21 24.16C238.135 23.936 238.154 23.7493 238.266 23.6C238.378 23.4133 238.565 23.32 238.826 23.32H242.298C242.522 23.32 242.709 23.376 242.858 23.488C243.007 23.5627 243.119 23.712 243.194 23.936L251.986 45.944C252.247 46.6533 252.546 46.6347 252.882 45.888L261.618 23.936C261.693 23.712 261.786 23.5627 261.898 23.488C262.047 23.376 262.234 23.32 262.458 23.32H265.034ZM273.237 40.008C273.237 41.8373 273.666 43.5173 274.525 45.048C275.421 46.5413 276.597 47.736 278.053 48.632C279.546 49.528 281.208 49.976 283.037 49.976C284.904 49.976 286.565 49.6027 288.021 48.856C289.477 48.072 290.728 46.896 291.773 45.328C291.922 45.1787 292.034 45.104 292.109 45.104C292.221 45.0667 292.37 45.0853 292.557 45.16L294.909 46.336C295.245 46.5227 295.282 46.784 295.021 47.12C294.013 48.6133 292.893 49.8453 291.661 50.816C290.466 51.7493 289.122 52.44 287.629 52.888C286.136 53.336 284.456 53.56 282.589 53.56C279.826 53.56 277.381 52.9253 275.253 51.656C273.125 50.3867 271.445 48.6133 270.213 46.336C268.981 44.0587 268.365 41.4267 268.365 38.44C268.365 35.192 268.981 32.4107 270.213 30.096C271.482 27.744 273.181 25.9333 275.309 24.664C277.474 23.3947 279.882 22.76 282.533 22.76C285.258 22.76 287.629 23.3573 289.645 24.552C291.661 25.7467 293.229 27.4827 294.349 29.76C295.469 32.0373 296.029 34.7813 296.029 37.992C296.029 38.2533 295.992 38.5147 295.917 38.776C295.88 39.0373 295.637 39.168 295.189 39.168H273.741C273.592 39.168 273.461 39.2613 273.349 39.448C273.274 39.5973 273.237 39.784 273.237 40.008ZM290.373 36.088C290.784 36.088 291.045 36.0507 291.157 35.976C291.269 35.864 291.325 35.64 291.325 35.304C291.325 33.6987 290.97 32.2053 290.261 30.824C289.589 29.4053 288.6 28.2667 287.293 27.408C286.024 26.5493 284.474 26.12 282.645 26.12C280.629 26.12 278.93 26.6053 277.549 27.576C276.168 28.5093 275.122 29.7413 274.413 31.272C273.704 32.8027 273.349 34.408 273.349 36.088H290.373ZM303.424 53C302.901 53 302.64 52.7573 302.64 52.272V24.048C302.64 23.5627 302.845 23.32 303.256 23.32H306.616C307.027 23.32 307.232 23.5253 307.232 23.936V27.184C307.232 27.3707 307.269 27.4827 307.344 27.52C307.419 27.5573 307.549 27.5013 307.736 27.352C308.968 26.3813 310.107 25.56 311.152 24.888C312.235 24.1787 313.336 23.656 314.456 23.32C315.576 22.9467 316.771 22.76 318.04 22.76C320.952 22.76 323.173 23.544 324.704 25.112C326.272 26.68 327.056 28.7147 327.056 31.216V52.104C327.056 52.7013 326.776 53 326.216 53H323.08C322.819 53 322.632 52.944 322.52 52.832C322.408 52.6827 322.352 52.496 322.352 52.272V32.28C322.352 30.4507 321.885 29.032 320.952 28.024C320.019 26.9787 318.544 26.456 316.528 26.456C315.445 26.456 314.419 26.6427 313.448 27.016C312.515 27.352 311.563 27.856 310.592 28.528C309.621 29.1627 308.539 29.984 307.344 30.992V52.16C307.344 52.72 307.064 53 306.504 53H303.424ZM342.472 26.848C342.174 26.848 342.024 26.9973 342.024 27.296V45.048C342.024 46.8027 342.323 47.9787 342.92 48.576C343.518 49.1733 344.414 49.472 345.608 49.472H349.472C349.659 49.472 349.808 49.528 349.92 49.64C350.032 49.7147 350.088 49.864 350.088 50.088L350.032 51.992C350.032 52.3653 349.808 52.608 349.36 52.72C348.987 52.7947 348.446 52.8507 347.736 52.888C347.064 52.9253 346.392 52.9627 345.72 53C345.086 53 344.544 53 344.096 53C341.744 53 340.027 52.4587 338.944 51.376C337.862 50.256 337.32 48.5013 337.32 46.112V27.408C337.32 27.0347 337.134 26.848 336.76 26.848H332.28C331.87 26.848 331.664 26.6427 331.664 26.232V23.88C331.664 23.5067 331.851 23.32 332.224 23.32H336.984C337.246 23.32 337.376 23.1707 337.376 22.872L337.992 13.968C338.03 13.4827 338.235 13.24 338.608 13.24H341.408C341.856 13.24 342.08 13.5013 342.08 14.024V22.872C342.08 23.1707 342.23 23.32 342.528 23.32H349.584C349.995 23.32 350.2 23.488 350.2 23.824V26.232C350.2 26.6427 349.995 26.848 349.584 26.848H342.472Z" fill="#061223"/>
</svg>
